<svg xmlns="http://www.w3.org/2000/svg" viewBox="0 0 419.5 121.9" enable-background="new 0 0 419.5 121.9"><style type="text/css">.st0{fill:#2E263E;} .st1{fill:none;stroke:#847782;stroke-width:2;stroke-miterlimit:10;} .st2{fill:none;stroke:#FAF2E4;stroke-width:2;stroke-miterlimit:10;} .st3{fill:#FAF2E4;}</style><g id="XMLID_1_"><path id="XMLID_45_" class="st0" d="M294.9 78h19.5v19.5h-19.5z"/><path id="XMLID_42_" class="st0" d="M336.3 24.7v45.2c0 4.4-3.6 8-8 8h-8.2v19.5h24c8.9 0 16.1-7.2 16.1-16.1v-56.6h-23.9z"/><path id="XMLID_41_" class="st0" d="M199.4 24.7l-13.9 21.3-13.9-21.3h-23.8v72.8h23.8v-29.3l13.9 21.3 13.9-21.3v29.3h23.8v-72.8z"/><path id="XMLID_10_" class="st0" d="M390.8 70.8s-10.3-4.9-15.8-9.4-8.5-8.4-8.5-16.8 4.4-14.9 10.5-17.5c6.1-2.6 13.7-2.3 13.7-2.3s14.1-.2 21.9 6.7l.1 17s-13.2-6.9-21.1-6.9c0 0-4.3 0-4.2 4.5 0 0-.1 2 2.4 3.9 2.6 2 11.9 6.8 16.8 9.3s10.1 7.6 11 14.9c.8 7.2-.9 11-3.1 14.3-2.3 3.3-7.2 8-15.8 8.8-8.6.8-23.8-.8-32-4.1v-18.5s13 4.8 23.3 4.8c0 0 1.9 0 3.1-1.5.5-.7 1-1.5 1-2.7 0 0 .1-1.1-.6-2.3-.4-.7-1.3-1.5-2.7-2.2z"/><path id="XMLID_5_" class="st0" d="M227.4 97.5h26.7l5-10 5 10h26.6l-18.3-36.4 18.3-36.4h-26.6l-5 10-5.1-10h-26.6l18.3 36.4z"/></g><path id="XMLID_11_" class="st1" d="M102.4 89.7l-50.7 29.3-50.6-29.3v-58.5l50.6-29.2 50.7 29.2z"/><path id="XMLID_61_" class="st2" d="M3.7 88.2l48-27.7 47.1 27.1"/><path id="XMLID_60_" class="st2" d="M51.7 4.9v56.4"/><path id="XMLID_27_" class="st3" d="M47.4 9.5l4.3-7.5 4.4 7.5z"/><path id="XMLID_33_" class="st3" d="M98 82.2l4.4 7.5h-8.7z"/><path id="XMLID_44_" class="st3" d="M5.4 82.2l-4.3 7.5h8.7z"/><g id="XMLID_3_"><path id="XMLID_9_" class="st3" d="M292.7 75.8h19.5v19.5h-19.5z"/><path id="XMLID_8_" class="st3" d="M334.2 22.6v45.2c0 4.4-3.6 8-8 8h-8.2v19.5h24c8.9 0 16.1-7.2 16.1-16.1v-56.6h-23.9z"/><path id="XMLID_7_" class="st3" d="M197.2 22.6l-13.9 21.3-13.9-21.3h-23.8v72.7h23.8v-29.2l13.9 21.2 13.9-21.2v29.2h23.8v-72.7z"/><path id="XMLID_6_" class="st3" d="M388.6 68.7s-10.3-4.9-15.8-9.4-8.5-8.4-8.5-16.8 4.4-14.9 10.5-17.5c6.1-2.6 13.7-2.3 13.7-2.3s14.1-.2 21.9 6.7l.1 17s-13.2-6.9-21.1-6.9c0 0-4.3 0-4.2 4.5 0 0-.1 2 2.4 3.9 2.6 2 11.9 6.8 16.8 9.3s10.1 7.6 11 14.9c.8 7.2-.9 11-3.1 14.3s-7.2 8-15.8 8.8-23.8-.8-32-4.1v-18.6s13 4.8 23.3 4.8c0 0 1.9 0 3.1-1.5.5-.7 1-1.5 1-2.7 0 0 .1-1.1-.6-2.3-.4-.7-1.2-1.5-2.7-2.1z"/><path id="XMLID_4_" class="st3" d="M225.2 95.3h26.7l5-9.9 5 9.9h26.6l-18.3-36.3 18.4-36.4h-26.7l-5 9.9-5-9.9h-26.7l18.4 36.4z"/></g></svg>